# xmcd
#
# Track frame offsets:
#	150
#	8684
#	24782
#	33136
#	44080
#	63920
#	72632
#	88829
#	102917
#	116338
#	130429
#	140015
#	160817
#	171895
#
# Disc length: 2457 seconds
#
# Revision: 0
# Processed by: cddbd v1.5.2PL0 Copyright (c) Steve Scherf et al.
# Submitted via: EasyCDDAExtractor 2010.6.0.0
#
DISCID=bb09970e
DTITLE=Tarharyhmä - Soitetaan kovaa! cd3 Koko tuotanto, koko tarina 1990-1995
DYEAR=1900
DGENRE=
TTITLE0=Misbehaving (Ole mulle mukava)
TTITLE1=Never Forget (Käsittämätön vaikeus)
TTITLE2=Pretty Confused (Aikalailla sekaisin)
TTITLE3=Scream It Higher (Soitetaan kovaa)
TTITLE4=I Felt The Scent Before (Kiva olla)
TTITLE5=Sing Till Hyperventilation (Tyttömäistä tappopoppia)
TTITLE6=Nananaa (Jääyö)
TTITLE7=In My Bed (Ympyrää)
TTITLE8=Morning (Aamulla)
TTITLE9=Revenge (Kosto)
TTITLE10=I’m So Happy Again (Onnellinen)
TTITLE11=At The Airport (Kirjastossa)
TTITLE12=Drowning (Unisuus)
TTITLE13=Alone (Yksinäni)
EXTD=
EXTT0=
EXTT1=
EXTT2=
EXTT3=
EXTT4=
EXTT5=
EXTT6=
EXTT7=
EXTT8=
EXTT9=
EXTT10=
EXTT11=
EXTT12=
EXTT13=
PLAYORDER=
